<?xml version="1.0" encoding="UTF-8" standalone="no"?>
<!-- Created with Inkscape (http://www.inkscape.org/) -->

<svg
   width="200mm"
   height="200mm"
   viewBox="0 0 200 200"
   version="1.1"
   id="svg1"
   xml:space="preserve"
   inkscape:version="1.4 (86a8ad7, 2024-10-11)"
   sodipodi:docname="logo.svg"
   xmlns:inkscape="http://www.inkscape.org/namespaces/inkscape"
   xmlns:sodipodi="http://sodipodi.sourceforge.net/DTD/sodipodi-0.dtd"
   xmlns="http://www.w3.org/2000/svg"
   xmlns:svg="http://www.w3.org/2000/svg"><sodipodi:namedview
     id="namedview1"
     pagecolor="#ffffff"
     bordercolor="#000000"
     borderopacity="0.25"
     inkscape:showpageshadow="2"
     inkscape:pageopacity="0.0"
     inkscape:pagecheckerboard="0"
     inkscape:deskcolor="#d1d1d1"
     inkscape:document-units="mm"
     inkscape:zoom="1.0721378"
     inkscape:cx="249.03516"
     inkscape:cy="403.39965"
     inkscape:window-width="1920"
     inkscape:window-height="1111"
     inkscape:window-x="-9"
     inkscape:window-y="-9"
     inkscape:window-maximized="1"
     inkscape:current-layer="layer1" /><defs
     id="defs1"><rect
       x="347.90305"
       y="347.90305"
       width="63.424685"
       height="57.828389"
       id="rect5" /><rect
       x="347.90305"
       y="347.90305"
       width="63.424685"
       height="57.828389"
       id="rect6" /></defs><g
     inkscape:label="Capa 1"
     inkscape:groupmode="layer"
     id="layer1"
     style="display:inline"><path
       style="display:inline;fill:#5cbd9b;fill-opacity:1;stroke:none;stroke-width:2.06858"
       d="m 85.57268,82.016347 c -6.969194,2.014318 -10.45437,10.821502 -7.236309,17.257664 2.490481,4.980939 7.870635,9.173419 11.760942,13.063739 1.984485,1.98447 8.108865,8.6578 9.592677,8.64638 1.19313,-0.009 7.49572,-6.61605 9.74783,-8.86816 6.27044,-6.27045 15.99918,-13.315475 11.45609,-23.421601 -0.6419,-1.427937 -1.4858,-2.810863 -2.60001,-3.920652 -3.28816,-3.275114 -9.0367,-4.038004 -13.32521,-2.466218 -1.83549,0.672721 -4.28337,2.93082 -5.124843,3.038358 -0.589436,0.07533 -3.887873,-2.331194 -5.454797,-2.982569 -2.504879,-1.041278 -6.218653,-1.09775 -8.81637,-0.346941"
       id="path1"
       sodipodi:nodetypes="csssssssssc" /><path
       style="display:inline;fill:#55bba1;stroke:none;stroke-width:2.04083"
       d="m 90.914462,35.999894 c -3.352609,1.928255 -1.775152,7.032296 -5.359355,8.766999 -3.084914,1.49309 -6.632728,2.220441 -9.794745,3.647019 -1.595396,0.71978 -3.307099,2.148461 -5.053332,2.407646 -2.7223,0.404083 -4.881659,-2.881546 -7.703898,-2.843423 -1.879152,0.02531 -3.336691,1.330354 -4.638983,2.534258 -2.892975,2.674381 -6.811709,5.799193 -8.771928,9.246191 -2.226971,3.916102 2.084566,6.02593 2.191546,9.611765 0.05021,1.680315 -1.492481,3.427936 -2.182138,4.885066 -1.590437,3.360303 -2.346012,7.083343 -3.909673,10.403728 -1.842561,3.912612 -7.982328,1.83505 -9.17864,6.42334 -0.996311,3.821163 -0.19245,8.806434 -0.184287,12.746477 0.0041,1.68632 -0.18898,3.64898 0.92976,5.05733 2.413258,3.03783 7.07669,1.29464 8.650229,5.39156 1.264293,3.29177 2.173746,6.63356 3.692673,9.84666 0.70384,1.48893 2.233362,3.2551 2.182117,4.97276 -0.116123,3.88984 -4.837723,5.93979 -1.864014,10.10395 2.263935,3.17024 5.60785,6.01369 8.444416,8.6726 1.285966,1.20543 2.755116,2.63679 4.638983,2.66222 3.260487,0.0441 5.483703,-4.02698 8.796536,-2.54902 2.897669,1.29277 5.598785,2.84031 8.599678,3.94056 1.903622,0.69794 4.515901,1.04333 6.129379,2.31231 2.418584,1.9022 1.427293,5.85001 3.88998,7.80637 1.268884,1.00801 2.94928,0.9188 4.477472,0.92933 3.819775,0.0263 11.052852,1.36628 14.413132,-0.59553 2.83084,-1.65274 1.80771,-5.63623 3.88998,-7.80457 1.46979,-1.53054 4.13213,-1.75897 6.05155,-2.4421 3.20732,-1.14151 6.06846,-3.09695 9.22606,-4.25912 4.00411,-1.47374 6.70706,4.38192 11.06949,1.84476 1.32038,-0.7679 2.39971,-1.92113 3.47924,-2.98213 2.68777,-2.64163 7.94333,-6.28702 7.99429,-10.43504 0.0437,-3.55445 -3.60912,-5.73864 -2.01838,-9.32988 1.20327,-2.71651 2.69706,-5.24871 3.68194,-8.06633 0.68021,-1.94601 1.00254,-4.59031 2.36154,-6.19648 2.36777,-2.79845 7.54635,-1.09564 8.6717,-5.41172 1.03252,-3.95998 0.23913,-9.241502 0.18204,-13.32634 -0.0243,-1.733866 -0.0416,-3.617998 -1.40898,-4.891781 -2.0745,-1.932397 -5.56213,-1.139352 -7.44484,-3.402283 -1.4658,-1.761846 -1.79364,-4.665881 -2.56468,-6.782627 -0.95366,-2.618034 -2.46563,-4.962557 -3.48953,-7.538366 -1.42132,-3.57557 2.07197,-5.789214 2.02911,-9.277967 -0.0555,-4.513901 -7.429,-10.620709 -10.89365,-12.956313 -4.66525,-3.144935 -7.40253,3.009077 -11.6959,1.414314 -3.14328,-1.167557 -6.02689,-3.024363 -9.17954,-4.22243 -1.77486,-0.674473 -4.10747,-0.938026 -5.62288,-2.127073 -2.46091,-1.930908 -1.41489,-5.882739 -3.83092,-7.852892 -1.24876,-1.018291 -2.94887,-0.918903 -4.46315,-0.929331 -3.84526,-0.02653 -11.025217,-1.35664 -14.419418,0.595533 M 43.287515,103.82896 c 0,-2.38989 -0.885046,-7.007957 0.92976,-8.856049 2.041541,-2.078949 5.461457,-1.227414 7.224695,-3.964245 1.760172,-2.732055 1.987867,-6.760137 3.213465,-9.794765 1.428559,-3.537141 4.161247,-6.845934 5.257355,-10.437729 0.923168,-3.025077 -2.010338,-4.749882 -2.147685,-7.538345 -0.107756,-2.187706 2.441298,-4.454717 4.078348,-5.589336 3.419079,-2.369706 5.792867,2.107991 9.277967,1.491294 2.612932,-0.46237 5.164945,-2.713035 7.538366,-3.869837 3.780448,-1.842601 7.656305,-2.695075 11.594775,-4.026449 4.359716,-1.473784 2.869504,-5.135088 5.302538,-7.951348 1.288517,-1.491457 5.095901,-1.135128 6.851991,-0.843862 4.1857,0.694228 2.94628,6.977567 6.99292,8.682454 3.53706,1.490171 7.46283,1.991255 11.00865,3.589753 2.75234,1.240782 5.74933,3.985205 8.6981,4.506983 3.49329,0.618167 5.80636,-3.985082 9.27797,-1.578988 0.62272,0.431615 1.20399,0.997883 1.72799,1.541866 0.93123,0.96676 2.14199,2.053439 2.31858,3.467589 0.33909,2.715341 -2.85197,4.684433 -2.35797,7.538366 0.48986,2.829974 3.0129,5.508356 4.18843,8.118226 1.72997,3.840755 2.17263,8.514718 4.15666,12.15184 2.05048,3.758958 7.71785,2.216848 7.9312,6.992914 0.0737,1.64758 0.49592,4.558188 -0.5848,5.947728 -1.69478,2.17905 -5.27339,1.39413 -7.02693,3.96427 -2.15834,3.16344 -2.38169,7.98773 -3.90074,11.53436 -1.2726,2.97126 -4.19594,6.13597 -4.76202,9.27796 -0.56752,3.14988 3.56381,5.63589 1.95617,8.69813 -0.96578,1.8396 -3.71473,4.79684 -5.96607,4.74503 -2.31567,-0.0533 -3.99239,-2.36655 -6.37861,-2.35887 -2.76323,0.008 -5.70235,2.66462 -8.11822,3.8421 -4.05878,1.97825 -8.79533,2.46148 -12.7317,4.45868 -3.10763,1.57672 -2.39732,4.67569 -4.16559,7.10479 -1.36575,1.87607 -5.876484,1.77807 -7.90527,1.15974 -3.191813,-0.97278 -2.145848,-6.47224 -5.38262,-8.184 -3.177344,-1.68034 -7.095119,-1.91863 -10.405953,-3.4099 -3.145445,-1.41678 -6.484728,-4.25814 -9.857847,-4.93205 -2.511667,-0.50177 -4.107593,1.63275 -6.378605,2.13114 -2.463625,0.54065 -4.900679,-2.14652 -6.169196,-3.9768 -2.287297,-3.30014 1.753622,-5.4099 1.5056,-8.6981 -0.229491,-3.04267 -3.169486,-6.51328 -4.435391,-9.27797 -1.683376,-3.67643 -2.091255,-10.31936 -4.993805,-13.08786 -1.833928,-1.74924 -4.97721,-2.07638 -7.362508,-2.56871"
       id="path2"
       sodipodi:nodetypes="cssscsscsssccsscsscssssssssssssssssscssssssssssccsssssssssssssssssssscsssssscssssssssssssc" /><path
       id="path3"
       style="display:inline;fill:#5cbd9b;fill-opacity:1;stroke:#5cbd9b;stroke-width:0;stroke-linejoin:round;stroke-dasharray:none"
       d="M 100.0001,0 A 100,100 0 0 0 0,100.0001 100,100 0 0 0 100.0001,200.0002 100,100 0 0 0 200.0002,100.0001 100,100 0 0 0 100.0001,0 Z M 99.594438,8.1462728 A 91.659233,91.659233 0 0 1 191.25344,99.805278 91.659233,91.659233 0 0 1 99.594438,191.4648 91.659233,91.659233 0 0 1 7.9349162,99.805278 91.659233,91.659233 0 0 1 99.594438,8.1462728 Z" /><circle
       style="fill:#16a1c7;fill-opacity:1;stroke:#5cbd9b;stroke-width:0;stroke-linejoin:round;stroke-dasharray:none"
       id="path4"
       cx="166.57726"
       cy="29.613731"
       r="19.495707" /><path
       id="path5"
       style="fill:#5cbd9b;fill-opacity:1;stroke:#5cbd9b;stroke-width:0;stroke-linejoin:round;stroke-dasharray:none"
       d="M 100.06986 58.240373 A 41.335835 41.335835 0 0 0 58.733883 99.576351 A 41.335835 41.335835 0 0 0 100.06986 140.91181 A 41.335835 41.335835 0 0 0 141.40532 99.576351 A 41.335835 41.335835 0 0 0 100.06986 58.240373 z M 100.06986 65.643538 A 33.9324 33.9324 0 0 1 134.00216 99.576351 A 33.9324 33.9324 0 0 1 100.06986 133.50865 A 33.9324 33.9324 0 0 1 66.137565 99.576351 A 33.9324 33.9324 0 0 1 100.06986 65.643538 z " /><text
       xml:space="preserve"
       transform="matrix(0.29949685,0,0,0.29949685,-13.50769,-14.836077)"
       id="text5"
       style="font-style:normal;font-variant:normal;font-weight:bold;font-stretch:normal;font-size:37.3333px;font-family:sans-serif;-inkscape-font-specification:'sans-serif Bold';text-align:start;writing-mode:lr-tb;direction:ltr;white-space:pre;shape-inside:url(#rect5);fill:#ffffff;fill-opacity:1;stroke:none;stroke-width:0;stroke-linejoin:round;stroke-dasharray:none"><tspan
         x="347.90234"
         y="381.96265"
         id="tspan1">FO</tspan></text><text
       xml:space="preserve"
       transform="matrix(0.29949685,0,0,0.29949685,-13.50769,-5.4583953)"
       id="text6"
       style="font-style:normal;font-variant:normal;font-weight:bold;font-stretch:normal;font-size:37.3333px;font-family:sans-serif;-inkscape-font-specification:'sans-serif Bold';text-align:start;writing-mode:lr-tb;direction:ltr;white-space:pre;shape-inside:url(#rect6);fill:#ffffff;fill-opacity:1;stroke:none;stroke-width:0;stroke-linejoin:round;stroke-dasharray:none"><tspan
         x="347.90234"
         y="381.96265"
         id="tspan2">SP</tspan></text></g></svg>
